<svg width="510" height="329" viewBox="0 0 510 329" fill="none" xmlns="http://www.w3.org/2000/svg">
<path fill-rule="evenodd" clip-rule="evenodd" d="M30.1102 268C27.8693 255.172 26.7009 241.975 26.7009 228.505C26.7009 102.617 128.753 0.564453 254.642 0.564453C380.53 0.564453 482.582 102.617 482.582 228.505C482.582 241.975 481.414 255.172 479.173 268H395.958C399.463 255.434 401.336 242.189 401.336 228.505C401.336 147.488 335.659 81.8109 254.642 81.8109C173.624 81.8109 107.947 147.488 107.947 228.505C107.947 242.189 109.821 255.434 113.325 268H30.1102Z" fill="url(#paint0_linear_502_276)"/>
<path d="M126.411 134.588C129.093 134.588 131.267 132.419 131.267 129.744C131.267 127.069 129.093 124.9 126.411 124.9C123.729 124.9 121.554 127.069 121.554 129.744C121.554 132.419 123.729 134.588 126.411 134.588Z" fill="#FFCADD"/>
<path d="M269.666 38.3666C272.491 38.3666 274.781 36.0823 274.781 33.2644C274.781 30.4465 272.491 28.1621 269.666 28.1621C266.84 28.1621 264.55 30.4465 264.55 33.2644C264.55 36.0823 266.84 38.3666 269.666 38.3666Z" fill="#FFCADD"/>
<path d="M333.048 161.209C338.413 161.209 342.762 156.872 342.762 151.521C342.762 146.171 338.413 141.833 333.048 141.833C327.684 141.833 323.335 146.171 323.335 151.521C323.335 156.872 327.684 161.209 333.048 161.209Z" fill="#FFCADD"/>
<path d="M11.3848 320.147C11.3848 320.147 28.2884 222.403 70.4974 214.146C112.706 205.891 93.3581 263 121.221 259.766C149.083 256.532 85.8404 145.717 135.591 147.896C171.846 149.484 187.917 241.365 229.862 231.94C271.807 222.515 302.123 178.282 364.837 184.197C427.551 190.114 368.645 275.798 409.741 279.601C450.838 283.403 451.911 243.425 474.884 250.341C497.856 257.255 480.747 320.147 480.747 320.147H11.3848Z" fill="#E3DEFF"/>
<path d="M288.399 289.872L276.105 319.901H208.464C208.464 317.026 208.604 247.423 208.674 214.517C208.692 204.267 208.709 197.571 208.709 197.571C208.709 197.571 212.994 195.491 218.629 193.979C227.041 191.724 238.477 190.737 243.174 199.843C251.016 215.051 257.659 282.023 257.659 282.023L288.399 289.872Z" fill="#005FEA"/>
<path d="M245.389 277.966C251.789 279.941 258.188 281.917 264.588 283.891" stroke="#2F302B" stroke-width="2" stroke-miterlimit="10" stroke-linecap="round"/>
<path d="M224.613 269.953L229.773 314.915L220.207 316.131L224.613 269.953Z" fill="#2F302B"/>
<path d="M225.297 264.195L218.673 319.902H121.22C121.22 319.902 121.256 319.702 121.308 319.308C122.658 310.673 138.387 210.183 139.482 209.449C140.288 208.916 154.949 201.173 163.764 196.532C167.602 194.513 170.328 193.081 170.328 193.081L208.709 197.573L215.053 205.535L227.637 221.319C227.637 221.318 241.929 244.294 225.297 264.195Z" fill="#005FEA"/>
<path d="M144.74 232.688L140.927 276.295L175.023 288.535L159.491 306.382L138.661 319.902H121.22L144.74 232.688Z" fill="#2F302B"/>
<path d="M228.361 222.229C232.292 228.809 234.641 236.44 234.32 244.094C234 251.746 230.869 259.382 225.197 264.546" stroke="#2F302B" stroke-width="2" stroke-miterlimit="10" stroke-linecap="round"/>
<path d="M225.295 263.83C223.599 281.263 221.903 298.698 220.208 316.132" stroke="#2F302B" stroke-width="2" stroke-miterlimit="10" stroke-linecap="round"/>
<path d="M144.74 232.933C144.74 233.684 133.907 280.929 133.907 280.929L175.023 288.535L171.935 319.902C171.935 319.902 115.148 320.147 111.853 320.147C76.9767 320.147 96.404 268.94 101.39 249.057C106.376 229.184 111.853 187.686 131.035 186.944C142.102 186.516 153.477 188.701 161.118 190.64C166.726 192.048 170.328 193.324 170.328 193.324C170.328 193.324 168.514 196.085 165.841 200.141C158.515 211.327 144.74 232.391 144.74 232.933Z" fill="#005FEA"/>
<path d="M175.023 288.535L127.577 279.601" stroke="#2F302B" stroke-width="2" stroke-miterlimit="10" stroke-linecap="round"/>
<path d="M175.023 288.535C175.023 288.535 197.534 294.126 203.499 297.211C209.464 300.296 222.752 318.805 222.752 318.805H161.998L175.023 288.535Z" fill="#FFDBD7"/>
<path d="M202.292 302.245C204.387 303.28 206.286 304.706 207.862 306.429C209.07 307.751 210.087 309.24 211.316 310.541C212.739 312.046 214.424 313.275 216.1 314.494" stroke="#2F302B" stroke-width="2" stroke-miterlimit="10" stroke-linecap="round"/>
<path d="M183.129 308.709C184.317 309.045 185.506 309.381 186.694 309.717C191.39 311.043 196.128 312.388 200.428 314.689" stroke="#2F302B" stroke-width="2" stroke-miterlimit="10" stroke-linecap="round"/>
<path d="M191.585 303.386C198.391 306.169 204.544 310.525 209.424 316.015" stroke="#2F302B" stroke-width="2" stroke-miterlimit="10" stroke-linecap="round"/>
<path d="M187.328 162.512L167.701 201.469L206.57 205.883L213.974 176.521L187.328 162.512Z" fill="#FFDBD7"/>
<path d="M213.974 176.521L208.71 197.396C208.71 197.396 199.276 187.243 197.889 179.636L201.106 170.037L213.974 176.521Z" fill="#2F302B"/>
<path d="M218.629 193.98C217.866 198.543 216.596 202.353 215.053 205.535C213.196 209.372 210.935 212.299 208.674 214.519C203.285 219.806 197.887 221.092 197.887 221.092C180.142 216.197 170.696 206.968 165.841 199.898C165.026 198.709 164.334 197.573 163.764 196.532C161.819 193.028 160.88 190.746 160.836 190.571C166.444 191.977 170.328 193.081 170.328 193.081L208.709 197.573C208.709 197.572 212.994 195.492 218.629 193.98Z" fill="#FFDBD7"/>
<path d="M237.796 110.837C237.796 110.837 253.713 112.039 256.791 122.979C259.87 133.917 249.095 145.24 248.518 145.24C247.94 145.24 237.796 110.837 237.796 110.837Z" fill="#2F302B"/>
<path d="M253.435 146.41C252.752 152.379 251.866 158.13 250.676 163.426C249.808 167.315 248.773 170.951 247.53 174.228C243.446 185.022 237.128 192.014 227.095 191.568C209.858 190.816 199.062 181.369 191.289 173.433C183.526 165.498 166.28 143.954 178.224 122.227C190.159 100.491 212.513 105.403 224.632 106.915C243.033 109.214 256.274 121.659 253.435 146.41Z" fill="#FFDBD7"/>
<path d="M228.802 166.756C228.766 168.279 229.286 169.81 230.244 170.998C231.202 172.186 232.588 173.022 234.087 173.316" stroke="#2F302B" stroke-width="2" stroke-miterlimit="10" stroke-linecap="round"/>
<path fill-rule="evenodd" clip-rule="evenodd" d="M237.252 150.955C237.369 152.279 237.292 153.236 237.292 153.236C237.292 153.236 235.462 157.369 229.504 156.915C227.726 156.779 226.348 156.172 225.281 155.341C226.021 151.95 229.047 149.411 232.668 149.411C234.391 149.411 235.98 149.986 237.252 150.955Z" fill="#2B302E"/>
<path d="M237.292 153.236C237.292 153.236 238.099 143.154 230.468 143.129C224.253 143.109 221.7 148.476 221.7 148.476" stroke="#2F302B" stroke-width="2" stroke-miterlimit="10" stroke-linecap="round"/>
<path fill-rule="evenodd" clip-rule="evenodd" d="M254.488 153.764C253.938 157.659 251.906 162.09 249.076 161.468C247.637 161.152 246.552 160.607 245.735 159.965C246.323 156.385 249.439 153.654 253.194 153.654C253.635 153.654 254.068 153.692 254.488 153.764Z" fill="#2B302E"/>
<path d="M243.239 155.146C243.239 155.146 246.16 145.811 253.362 148.327" stroke="#2F302B" stroke-width="2" stroke-miterlimit="10" stroke-linecap="round"/>
<path d="M248.159 142.298C249.368 141.781 250.76 141.801 252.024 142.163C253.287 142.524 254.436 143.21 255.491 143.993" stroke="#2F302B" stroke-width="2" stroke-miterlimit="10" stroke-linecap="round"/>
<path d="M222.76 139.528C227.128 137.281 232.573 137.251 236.966 139.448" stroke="#2F302B" stroke-width="2" stroke-miterlimit="10" stroke-linecap="round"/>
<path d="M243.262 155.052C242.288 157.419 241.532 159.877 241.011 162.382C242.095 161.924 243.495 162.448 244.008 163.506C244.589 164.704 244.034 166.163 243.198 167.202C241.974 168.722 240.138 169.739 238.196 169.973" stroke="#2F302B" stroke-width="2" stroke-miterlimit="10" stroke-linecap="round"/>
<path d="M240.545 112.269C240.545 112.269 235.241 145.24 200.221 148.478L185.315 166.509C185.315 166.509 155.918 135.635 181.725 116.929C181.725 116.928 199.475 85.6389 240.545 112.269Z" fill="#2F302B"/>
<path d="M240.742 112.654C243.309 118.094 240.966 124.697 237.188 129.381C232.082 135.71 223.743 139.96 215.766 138.321" stroke="#2F302B" stroke-width="2" stroke-miterlimit="10" stroke-linecap="round"/>
<path d="M183.095 120.483C176.553 121.827 170.42 127.34 168.848 132.519C167.123 138.201 168.514 144.567 171.846 149.484C175.18 154.402 180.29 157.949 185.827 160.127" stroke="#2F302B" stroke-width="2" stroke-miterlimit="10" stroke-linecap="round"/>
<path d="M171.935 126.816C184.262 126.816 194.256 116.849 194.256 104.554C194.256 92.2594 184.262 82.2925 171.935 82.2925C159.607 82.2925 149.614 92.2594 149.614 104.554C149.614 116.849 159.607 126.816 171.935 126.816Z" fill="#2F302B"/>
<path d="M202.573 164.14C209.418 172.691 219.968 178.184 230.915 178.898" stroke="#2F302B" stroke-width="2" stroke-miterlimit="10" stroke-linecap="round"/>
<path d="M221.925 177.495C222.204 174.821 224.121 172.828 228.357 173.268C232.593 173.708 235.801 176.232 235.523 178.906C235.244 181.58 231.584 183.392 227.348 182.952C223.111 182.514 221.647 180.171 221.925 177.495Z" fill="#2F302B"/>
<path d="M196.546 175.323C207.36 175.323 216.127 166.58 216.127 155.795C216.127 145.009 207.36 136.266 196.546 136.266C185.732 136.266 176.966 145.009 176.966 155.795C176.966 166.58 185.732 175.323 196.546 175.323Z" fill="#2F302B"/>
<path d="M190.837 175.323C201.651 175.323 210.418 166.58 210.418 155.795C210.418 145.009 201.651 136.266 190.837 136.266C180.023 136.266 171.257 145.009 171.257 155.795C171.257 166.58 180.023 175.323 190.837 175.323Z" fill="#FFE459"/>
<path d="M188.079 139.193C188.079 139.193 195.36 104.554 217.201 102.288C223.051 102.124 228.342 105.679 228.342 105.679C228.342 105.679 209.264 105.898 201.567 143.128L188.079 139.193Z" fill="#FFE459"/>
<path d="M190.837 171.567C199.571 171.567 206.652 164.506 206.652 155.795C206.652 147.084 199.571 140.022 190.837 140.022C182.103 140.022 175.023 147.084 175.023 155.795C175.023 164.506 182.103 171.567 190.837 171.567Z" stroke="#2F302B" stroke-width="2" stroke-miterlimit="10" stroke-linecap="round"/>
<path d="M167.035 314.879H290.344V319.902H161.998C161.998 317.128 164.252 314.879 167.035 314.879Z" fill="#2F302B"/>
<path d="M440.608 214.146H296.713C293.262 214.146 290.256 216.493 289.425 219.833L264.549 319.902H423.914L447.894 223.437C449.069 218.714 445.486 214.146 440.608 214.146Z" fill="#C6BFE4"/>
<path d="M447.929 214.146H304.035C300.584 214.146 297.577 216.493 296.747 219.833L271.871 319.902H431.238L455.216 223.437C456.391 218.714 452.807 214.146 447.929 214.146Z" fill="#EBE8F9"/>
<path d="M375.204 267.028C373.592 272.674 367.695 277.254 362.034 277.254C359.16 277.254 356.872 276.082 355.497 274.186C355.488 274.177 355.488 274.168 355.488 274.168C354.156 272.324 353.691 269.807 354.411 267.027C355.865 261.373 361.763 256.793 367.581 256.793C370.473 256.793 372.778 257.929 374.162 259.764C375.555 261.618 376.011 264.188 375.204 267.028Z" fill="white"/>
<path d="M62.2814 267.814C62.2726 267.814 62.2726 267.814 62.2726 267.814C62.2551 267.822 62.2463 267.822 62.2463 267.822C62.2551 267.805 62.2814 267.77 62.3164 267.717C63.2716 266.258 73.1824 251.435 81.9804 249.915C83.4087 249.671 84.8108 249.775 86.134 250.343C95.8695 254.485 63.6046 267.289 62.2814 267.814Z" fill="#2F302B"/>
<path d="M62.264 267.831C53.4222 262.84 43.8882 248.079 48.0418 243.368L48.0506 243.36C48.5939 242.748 49.365 242.311 50.399 242.084C59.416 240.1 62.264 267.831 62.264 267.831Z" fill="#2F302B"/>
<path d="M62.2595 269.953C63.5082 257.961 68.3865 246.37 76.0944 237.083" stroke="#2F302B" stroke-width="2" stroke-miterlimit="10" stroke-linecap="round"/>
<path d="M74.9273 238.666C74.9273 238.666 74.3639 218.859 80.207 220.139C83.7778 220.921 82.4494 226.384 82.4494 226.384C82.4494 226.384 85.5313 218.156 89.3581 221.531C91.6618 223.562 85.6216 228.698 85.6216 228.698C85.6216 228.698 91.7538 226.665 91.7538 230.887C91.7538 235.109 74.9273 238.666 74.9273 238.666Z" fill="#FFE55A"/>
<path d="M78.0119 238.675C76.9166 238.761 75.8571 238.761 74.9265 238.668L74.9327 238.662C75.0247 238.583 75.8939 237.832 77.1488 236.879C78.4772 235.866 80.2412 234.632 81.943 233.74C84.6796 232.311 87.2822 231.761 87.7598 234.449C88.1269 236.538 82.6896 238.334 78.0119 238.675Z" fill="#2F302B"/>
<path d="M77.6937 232.385C77.3082 233.459 76.8726 234.516 76.4634 235.451C75.7037 237.173 75.0307 238.467 74.9387 238.651C74.9325 238.657 74.9325 238.657 74.9325 238.663L74.9264 238.669C74.9264 238.669 72.9118 232.978 73.3833 228.997C73.6163 226.963 74.4918 225.381 76.6159 225.223C79.6154 224.997 78.967 228.776 77.6937 232.385Z" fill="#2F302B"/>
<path d="M74.9255 238.669C74.9255 238.669 78.8373 227.066 82.4932 229.68C86.1499 232.294 74.9255 238.669 74.9255 238.669Z" fill="#2F302B"/>
<path d="M39.5181 271.75L82.9627 267.024L79.8782 319.902H39.5181V271.75Z" fill="#8C70F2"/>
<path d="M39.5181 271.75L82.9627 267.024L79.8782 319.902H39.5181V271.75Z" fill="#FFE55A"/>
<path d="M39.5181 286.204L79.8782 319.902H39.5181V286.204Z" fill="#2F302B"/>
<path d="M32.8784 308.84C33.6399 306.142 35.6615 303.916 38.0669 302.466C43.0863 299.442 49.428 299.637 55.1598 300.873C60.8916 302.109 66.4306 304.282 72.2579 304.933C80.0043 305.798 88.0373 303.831 94.4999 299.485" stroke="#FFE5ED" stroke-miterlimit="10"/>
<path d="M34.6758 307.954H92.1367" stroke="#FFE5ED" stroke-miterlimit="10"/>
<path d="M35.9963 293.464H94.5324" stroke="#FFE5ED" stroke-miterlimit="10"/>
<path d="M121.002 299.058L118.224 308.322C117.006 312.368 113.991 315.437 110.188 316.765C108.83 317.245 107.375 317.499 105.859 317.499H100.321V312.255H105.859C107.638 312.255 109.286 311.661 110.591 310.621C111.801 309.694 112.712 308.375 113.185 306.819L115.963 297.554C116.664 295.22 116.226 292.765 114.771 290.815C114.044 289.837 113.115 289.067 112.064 288.535C111.021 288.02 109.855 287.74 108.637 287.74H106.674V282.496H108.637C109.943 282.496 111.214 282.688 112.423 283.055C115.017 283.842 117.313 285.441 118.986 287.688C121.449 290.982 122.185 295.125 121.002 299.058Z" fill="white"/>
<path d="M105.859 312.255C107.638 312.255 109.286 311.661 110.591 310.621C110.451 312.832 110.311 314.912 110.188 316.765C108.83 317.245 107.375 317.499 105.859 317.499H100.321V312.255H105.859Z" fill="#2F302B"/>
<path d="M112.423 283.056C112.318 284.56 112.195 286.429 112.063 288.536C111.021 288.021 109.855 287.741 108.637 287.741H106.674V282.497H108.637C109.943 282.496 111.213 282.688 112.423 283.056Z" fill="#2F302B"/>
<path d="M69.177 319.902V279.602H109.619L103.851 319.902H69.177Z" fill="white"/>
<path d="M69.177 300L103.851 319.902H69.177V300Z" fill="#2F302B"/>
<path d="M89.3983 279.602L87.9621 296.592H84.7698L84.2983 304.652L93.4853 305.749L93.5861 296.729L89.6376 296.821L90.5796 279.602H89.3983Z" fill="#FFE55A"/>
<defs>
<linearGradient id="paint0_linear_502_276" x1="141.974" y1="0.564447" x2="367.961" y2="418.673" gradientUnits="userSpaceOnUse">
<stop stop-color="#F8CAFF" stop-opacity="0.4"/>
<stop offset="1" stop-color="white" stop-opacity="0"/>
</linearGradient>
</defs>
</svg>
