<svg width="364" height="235" viewBox="0 0 364 235" fill="none" xmlns="http://www.w3.org/2000/svg">
<rect y="77" width="364" height="153" rx="27" fill="url(#paint0_linear_502_282)"/>
<path d="M104.72 176.16V232H93.52V176.16H104.72ZM144.586 232L132.266 210.24H126.986V232H115.786V176.16H136.746C141.066 176.16 144.746 176.933 147.786 178.48C150.826 179.973 153.092 182.027 154.586 184.64C156.132 187.2 156.906 190.08 156.906 193.28C156.906 196.96 155.839 200.293 153.706 203.28C151.572 206.213 148.399 208.24 144.186 209.36L157.546 232H144.586ZM126.986 201.84H136.346C139.386 201.84 141.652 201.12 143.146 199.68C144.639 198.187 145.386 196.133 145.386 193.52C145.386 190.96 144.639 188.987 143.146 187.6C141.652 186.16 139.386 185.44 136.346 185.44H126.986V201.84ZM165.916 189.04C166.182 183.707 168.049 179.6 171.516 176.72C175.036 173.787 179.649 172.32 185.356 172.32C189.249 172.32 192.582 173.013 195.356 174.4C198.129 175.733 200.209 177.573 201.596 179.92C203.036 182.213 203.756 184.827 203.756 187.76C203.756 191.12 202.876 193.973 201.116 196.32C199.409 198.613 197.356 200.16 194.956 200.96V201.28C198.049 202.24 200.449 203.947 202.156 206.4C203.916 208.853 204.796 212 204.796 215.84C204.796 219.04 204.049 221.893 202.556 224.4C201.116 226.907 198.956 228.88 196.076 230.32C193.249 231.707 189.836 232.4 185.836 232.4C179.809 232.4 174.902 230.88 171.116 227.84C167.329 224.8 165.329 220.32 165.116 214.4H175.996C176.102 217.013 176.982 219.12 178.636 220.72C180.342 222.267 182.662 223.04 185.596 223.04C188.316 223.04 190.396 222.293 191.836 220.8C193.329 219.253 194.076 217.28 194.076 214.88C194.076 211.68 193.062 209.387 191.036 208C189.009 206.613 185.862 205.92 181.596 205.92H179.276V196.72H181.596C189.169 196.72 192.956 194.187 192.956 189.12C192.956 186.827 192.262 185.04 190.876 183.76C189.542 182.48 187.596 181.84 185.036 181.84C182.529 181.84 180.582 182.533 179.196 183.92C177.862 185.253 177.089 186.96 176.876 189.04H165.916ZM252.846 183.36H226.926V197.04C228.046 195.653 229.646 194.533 231.726 193.68C233.806 192.773 236.02 192.32 238.366 192.32C242.633 192.32 246.126 193.253 248.846 195.12C251.566 196.987 253.54 199.387 254.766 202.32C255.993 205.2 256.606 208.293 256.606 211.6C256.606 217.733 254.846 222.667 251.326 226.4C247.86 230.133 242.9 232 236.446 232C230.366 232 225.513 230.48 221.886 227.44C218.26 224.4 216.206 220.427 215.726 215.52H226.606C227.086 217.653 228.153 219.36 229.806 220.64C231.513 221.92 233.673 222.56 236.286 222.56C239.433 222.56 241.806 221.573 243.406 219.6C245.006 217.627 245.806 215.013 245.806 211.76C245.806 208.453 244.98 205.947 243.326 204.24C241.726 202.48 239.353 201.6 236.206 201.6C233.966 201.6 232.1 202.16 230.606 203.28C229.113 204.4 228.046 205.893 227.406 207.76H216.686V173.52H252.846V183.36Z" fill="white"/>
<circle cx="254.5" cy="65.5" r="44.5" fill="#FFE8F8"/>
<circle cx="101.5" cy="85.5" r="62.5" fill="#FFE8F8"/>
<circle cx="101.5" cy="85.5" r="39.5" fill="#005FEA"/>
<path d="M285.838 23.0073V78.5886C285.838 81.5776 283.414 83.9998 280.427 83.9998H230.411C227.422 83.9998 225 81.5776 225 78.5886V5.41127C225 2.42222 227.422 0 230.411 0H262.831L285.838 23.0073Z" fill="#6988FF"/>
<path d="M265.97 22.5078L285.838 30.693V23.0077L274.573 19.6816L265.97 22.5078Z" fill="#4467EB"/>
<path d="M285.838 23.0073H268.242C265.253 23.0073 262.831 20.5851 262.831 17.596V0L285.838 23.0073Z" fill="#A6B8FF"/>
<path d="M146.5 85.5512C146.5 75.3362 142.986 65.4323 136.547 57.5021C130.108 49.5718 121.137 44.0982 111.14 42L102 85.5512H146.5Z" fill="#D3C5FF"/>
<rect x="237" y="41" width="36" height="3" rx="1.5" fill="white"/>
<rect x="237" y="54" width="36" height="3" rx="1.5" fill="white"/>
<rect x="237" y="67" width="36" height="3" rx="1.5" fill="white"/>
<defs>
<linearGradient id="paint0_linear_502_282" x1="3.75101e-06" y1="154.52" x2="364" y2="154.52" gradientUnits="userSpaceOnUse">
<stop stop-color="#B4B7FF"/>
<stop offset="1" stop-color="#406AFF"/>
</linearGradient>
</defs>
</svg>
