<svg width="446" height="324" viewBox="0 0 446 324" fill="none" xmlns="http://www.w3.org/2000/svg">
<path fill-rule="evenodd" clip-rule="evenodd" d="M413.58 179.089C394.546 85.6082 376.652 -2.27762 293.036 0.672317C195.861 4.1006 49.3503 152.85 16.0003 255C2.83667 295.32 -1.77895 308.127 1.5849 310.767C7.42991 315.355 37.3668 289.247 88.413 323.452H335.699C337.126 322.317 338.56 321.167 340 320C401.046 270.549 438.321 317.732 444.538 313.944C447.351 312.23 443.805 300.078 433.222 263.808C425.302 236.662 419.388 207.615 413.58 179.089Z" fill="url(#paint0_linear_502_277)"/>
<path d="M90.0162 150.823C91.604 150.823 92.8913 149.547 92.8913 147.972C92.8913 146.398 91.604 145.122 90.0162 145.122C88.4283 145.122 87.1411 146.398 87.1411 147.972C87.1411 149.547 88.4283 150.823 90.0162 150.823Z" fill="#4181FF"/>
<path d="M127.521 150.823C129.109 150.823 130.396 149.547 130.396 147.972C130.396 146.398 129.109 145.122 127.521 145.122C125.933 145.122 124.646 146.398 124.646 147.972C124.646 149.547 125.933 150.823 127.521 150.823Z" fill="#4181FF"/>
<path d="M165.026 150.823C166.614 150.823 167.901 149.547 167.901 147.972C167.901 146.398 166.614 145.122 165.026 145.122C163.438 145.122 162.151 146.398 162.151 147.972C162.151 149.547 163.438 150.823 165.026 150.823Z" fill="#4181FF"/>
<path d="M202.53 150.823C204.118 150.823 205.405 149.547 205.405 147.972C205.405 146.398 204.118 145.122 202.53 145.122C200.942 145.122 199.655 146.398 199.655 147.972C199.655 149.547 200.942 150.823 202.53 150.823Z" fill="#4181FF"/>
<path d="M90.0162 187.689C91.604 187.689 92.8913 186.412 92.8913 184.838C92.8913 183.263 91.604 181.987 90.0162 181.987C88.4283 181.987 87.1411 183.263 87.1411 184.838C87.1411 186.412 88.4283 187.689 90.0162 187.689Z" fill="#4181FF"/>
<path d="M127.521 187.689C129.109 187.689 130.396 186.412 130.396 184.838C130.396 183.263 129.109 181.987 127.521 181.987C125.933 181.987 124.646 183.263 124.646 184.838C124.646 186.412 125.933 187.689 127.521 187.689Z" fill="#4181FF"/>
<path d="M165.026 187.689C166.614 187.689 167.901 186.412 167.901 184.838C167.901 183.263 166.614 181.987 165.026 181.987C163.438 181.987 162.151 183.263 162.151 184.838C162.151 186.412 163.438 187.689 165.026 187.689Z" fill="#4181FF"/>
<path d="M202.53 187.689C204.118 187.689 205.405 186.412 205.405 184.838C205.405 183.263 204.118 181.987 202.53 181.987C200.942 181.987 199.655 183.263 199.655 184.838C199.655 186.412 200.942 187.689 202.53 187.689Z" fill="#4181FF"/>
<path d="M90.0162 224.554C91.604 224.554 92.8913 223.278 92.8913 221.703C92.8913 220.129 91.604 218.853 90.0162 218.853C88.4283 218.853 87.1411 220.129 87.1411 221.703C87.1411 223.278 88.4283 224.554 90.0162 224.554Z" fill="#4181FF"/>
<path d="M127.521 224.554C129.109 224.554 130.396 223.278 130.396 221.703C130.396 220.129 129.109 218.853 127.521 218.853C125.933 218.853 124.646 220.129 124.646 221.703C124.646 223.278 125.933 224.554 127.521 224.554Z" fill="#4181FF"/>
<path d="M165.026 224.554C166.614 224.554 167.901 223.278 167.901 221.703C167.901 220.129 166.614 218.853 165.026 218.853C163.438 218.853 162.151 220.129 162.151 221.703C162.151 223.278 163.438 224.554 165.026 224.554Z" fill="#4181FF"/>
<path d="M202.53 224.554C204.118 224.554 205.405 223.278 205.405 221.703C205.405 220.129 204.118 218.853 202.53 218.853C200.942 218.853 199.655 220.129 199.655 221.703C199.655 223.278 200.942 224.554 202.53 224.554Z" fill="#4181FF"/>
<path d="M90.0162 261.421C91.604 261.421 92.8913 260.144 92.8913 258.57C92.8913 256.995 91.604 255.719 90.0162 255.719C88.4283 255.719 87.1411 256.995 87.1411 258.57C87.1411 260.144 88.4283 261.421 90.0162 261.421Z" fill="#4181FF"/>
<path d="M127.521 261.421C129.109 261.421 130.396 260.144 130.396 258.57C130.396 256.995 129.109 255.719 127.521 255.719C125.933 255.719 124.646 256.995 124.646 258.57C124.646 260.144 125.933 261.421 127.521 261.421Z" fill="#4181FF"/>
<path d="M165.026 261.421C166.614 261.421 167.901 260.144 167.901 258.57C167.901 256.995 166.614 255.719 165.026 255.719C163.438 255.719 162.151 256.995 162.151 258.57C162.151 260.144 163.438 261.421 165.026 261.421Z" fill="#4181FF"/>
<path d="M202.53 261.421C204.118 261.421 205.405 260.144 205.405 258.57C205.405 256.995 204.118 255.719 202.53 255.719C200.942 255.719 199.655 256.995 199.655 258.57C199.655 260.144 200.942 261.421 202.53 261.421Z" fill="#4181FF"/>
<rect x="292" y="92" width="129" height="178" rx="13" fill="white"/>
<rect x="307.076" y="138.783" width="56.3785" height="6.63277" rx="3.31638" fill="#EDECF3"/>
<rect x="307.076" y="231.642" width="100.597" height="1.10546" rx="0.552731" fill="#EDECF3"/>
<rect x="380.036" y="138.783" width="27.6365" height="6.63277" rx="3.31638" fill="#D2DCFF"/>
<rect x="307.076" y="161.998" width="43.113" height="6.63277" rx="3.31638" fill="#EDECF3"/>
<rect x="380.036" y="161.998" width="21.0038" height="6.63277" rx="3.31638" fill="#D2DCFF"/>
<rect x="307.076" y="185.212" width="35.3748" height="6.63277" rx="3.31638" fill="#EDECF3"/>
<rect x="380.036" y="185.212" width="17.6874" height="6.63277" rx="3.31638" fill="#D2DCFF"/>
<rect x="307.076" y="208.427" width="46.4294" height="6.63277" rx="3.31638" fill="#EDECF3"/>
<rect x="307.076" y="249.329" width="46.4294" height="6.63277" rx="3.31638" fill="#EDECF3"/>
<rect x="380.036" y="208.427" width="23.2147" height="6.63277" rx="3.31638" fill="#D2DCFF"/>
<rect x="380.036" y="249.329" width="23.2147" height="6.63277" rx="3.31638" fill="#D2DCFF"/>
<path d="M342.6 105.55V108.375H337.95V123H334.45V108.375H329.8V105.55H342.6ZM355.854 119.675H348.904L347.754 123H344.079L350.354 105.525H354.429L360.704 123H357.004L355.854 119.675ZM354.904 116.875L352.379 109.575L349.854 116.875H354.904ZM373.499 123L369.724 117.125L366.299 123H362.349L367.849 114.2L362.274 105.55H366.299L370.074 111.4L373.474 105.55H377.424L371.949 114.325L377.524 123H373.499Z" fill="#1A3271"/>
<rect x="145.678" y="176.368" width="150.343" height="93.9642" rx="13" fill="url(#paint1_linear_502_277)"/>
<rect x="168.229" y="220.218" width="8.76999" height="32.5743" rx="3.5" fill="white"/>
<rect x="193.287" y="210.195" width="7.51714" height="42.5971" rx="3.5" fill="white"/>
<rect x="218.344" y="207.69" width="7.51714" height="45.1028" rx="3.5" fill="white"/>
<rect x="243.401" y="220.218" width="7.51714" height="32.5743" rx="3.5" fill="white"/>
<rect x="267.205" y="193.908" width="8.76999" height="58.8843" rx="3.5" fill="white"/>
<path d="M178 90C178 100.087 175.009 109.947 169.405 118.334C163.801 126.721 155.836 133.258 146.517 137.118C137.198 140.978 126.943 141.988 117.05 140.02C107.157 138.052 98.07 133.195 90.9376 126.062C83.8051 118.93 78.9478 109.843 76.98 99.9496C75.0121 90.0566 76.0221 79.8022 79.8821 70.4831C83.7422 61.1641 90.279 53.199 98.6659 47.595C107.053 41.9911 116.913 39 127 39V90H178Z" fill="#005FEA" fill-opacity="0.8"/>
<path d="M191 78C191 71.3026 189.681 64.6707 187.118 58.4831C184.555 52.2955 180.798 46.6733 176.062 41.9376C171.327 37.2018 165.704 33.4451 159.517 30.8821C153.329 28.3192 146.697 27 140 27L140 78H191Z" fill="#CACFFF"/>
<defs>
<linearGradient id="paint0_linear_502_277" x1="184.234" y1="-24.0301" x2="174.924" y2="364.62" gradientUnits="userSpaceOnUse">
<stop stop-color="#CFB1FF" stop-opacity="0.4"/>
<stop offset="1" stop-color="white" stop-opacity="0"/>
</linearGradient>
<linearGradient id="paint1_linear_502_277" x1="145.678" y1="223.977" x2="296.021" y2="223.977" gradientUnits="userSpaceOnUse">
<stop stop-color="#B4B7FF"/>
<stop offset="1" stop-color="#406AFF"/>
</linearGradient>
</defs>
</svg>
