<svg width="347" height="347" viewBox="0 0 347 347" fill="none" xmlns="http://www.w3.org/2000/svg">
<path opacity="0.4" d="M326.965 126.504C333.83 124.401 341.151 128.256 342.734 135.259C351.319 173.249 346.893 213.17 329.944 248.516C311.116 287.783 278.208 318.534 237.757 334.662C197.306 350.791 152.268 351.117 111.587 335.577C70.906 320.037 37.5564 289.767 18.16 250.777C-1.23637 211.787 -5.26104 166.929 6.88511 125.109C19.0313 83.2886 46.46 47.5654 83.7251 25.0321C120.99 2.49876 165.367 -5.19678 208.043 3.47342C246.458 11.2779 280.967 31.8294 306.087 61.5939C310.718 67.0807 309.376 75.2445 303.558 79.4516L265.733 106.804C259.915 111.011 251.844 109.635 246.923 104.406C232.712 89.3035 214.102 78.8681 193.573 74.6974C168.774 69.6591 142.987 74.131 121.332 87.2251C99.6769 100.319 83.738 121.078 76.6799 145.38C69.6218 169.681 71.9605 195.749 83.2318 218.406C94.503 241.063 113.883 258.653 137.522 267.683C161.162 276.714 187.333 276.524 210.84 267.152C234.346 257.779 253.469 239.91 264.41 217.092C273.468 198.203 276.371 177.065 272.898 156.62C271.696 149.542 275.467 142.274 282.332 140.172L326.965 126.504Z" fill="url(#paint0_linear_502_280)"/>
<g filter="url(#filter0_d_502_280)">
<rect x="66" y="83" width="152" height="210" rx="13" fill="white"/>
</g>
<rect x="83" y="124" width="70" height="7" rx="3.5" fill="#EDECF3"/>
<rect x="83" y="148" width="53.6036" height="6" rx="3" fill="#EDECF3"/>
<rect x="83" y="218" width="53.6036" height="7" rx="3.5" fill="#EDECF3"/>
<rect x="83" y="171" width="43.5135" height="7" rx="3.5" fill="#EDECF3"/>
<rect x="83" y="242" width="43.5135" height="6" rx="3" fill="#EDECF3"/>
<rect x="83" y="195" width="57.3874" height="6" rx="3" fill="#EDECF3"/>
<rect x="83" y="265" width="57.3874" height="7" rx="3.5" fill="#EDECF3"/>
<rect x="174" y="124" width="28" height="7" rx="3.5" fill="#CDC9FF"/>
<rect x="174" y="148" width="21.4414" height="6" rx="3" fill="#CDC9FF"/>
<rect x="174" y="218" width="21.4414" height="7" rx="3.5" fill="#CDC9FF"/>
<rect x="174" y="171" width="17.4054" height="7" rx="3.5" fill="#CDC9FF"/>
<rect x="174" y="242" width="17.4054" height="6" rx="3" fill="#CDC9FF"/>
<rect x="174" y="195" width="22.955" height="6" rx="3" fill="#CDC9FF"/>
<rect x="174" y="265" width="22.955" height="7" rx="3.5" fill="#CDC9FF"/>
<path d="M233.696 160H318.304C319.815 160 321.263 160.6 322.332 161.668C323.4 162.737 324 164.185 324 165.696V282.304C324 283.815 323.4 285.263 322.332 286.332C321.263 287.4 319.815 288 318.304 288H233.696C232.185 288 230.737 287.4 229.668 286.332C228.6 285.263 228 283.815 228 282.304V165.696C228 164.185 228.6 162.737 229.668 161.668C230.737 160.6 232.185 160 233.696 160Z" fill="url(#paint1_linear_502_280)"/>
<path d="M254.298 216.276H240.102C239.634 216.276 239.255 216.741 239.255 217.314V231.128C239.255 231.701 239.634 232.166 240.102 232.166H254.298C254.765 232.166 255.145 231.701 255.145 231.128V217.314C255.145 216.741 254.765 216.276 254.298 216.276Z" fill="url(#paint2_linear_502_280)"/>
<path d="M254.298 238.786H240.102C239.634 238.786 239.255 239.251 239.255 239.824V253.638C239.255 254.211 239.634 254.676 240.102 254.676H254.298C254.765 254.676 255.145 254.211 255.145 253.638V239.824C255.145 239.251 254.765 238.786 254.298 238.786Z" fill="url(#paint3_linear_502_280)"/>
<path d="M254.298 261.296H240.102C239.634 261.296 239.255 261.761 239.255 262.334V276.148C239.255 276.721 239.634 277.186 240.102 277.186H254.298C254.765 277.186 255.145 276.721 255.145 276.148V262.334C255.145 261.761 254.765 261.296 254.298 261.296Z" fill="url(#paint4_linear_502_280)"/>
<path d="M273.497 216.275H259.302C258.834 216.275 258.455 216.74 258.455 217.313V231.127C258.455 231.7 258.834 232.165 259.302 232.165H273.497C273.965 232.165 274.345 231.7 274.345 231.127V217.313C274.345 216.74 273.965 216.275 273.497 216.275Z" fill="url(#paint5_linear_502_280)"/>
<path d="M273.497 238.786H259.302C258.834 238.786 258.455 239.25 258.455 239.823V253.638C258.455 254.211 258.834 254.675 259.302 254.675H273.497C273.965 254.675 274.345 254.211 274.345 253.638V239.823C274.345 239.25 273.965 238.786 273.497 238.786Z" fill="url(#paint6_linear_502_280)"/>
<path d="M273.497 261.296H259.302C258.834 261.296 258.455 261.761 258.455 262.334V276.148C258.455 276.721 258.834 277.186 259.302 277.186H273.497C273.965 277.186 274.345 276.721 274.345 276.148V262.334C274.345 261.761 273.965 261.296 273.497 261.296Z" fill="url(#paint7_linear_502_280)"/>
<path d="M292.698 216.276H278.503C278.035 216.276 277.655 216.74 277.655 217.314V231.128C277.655 231.701 278.035 232.166 278.503 232.166H292.698C293.166 232.166 293.545 231.701 293.545 231.128V217.314C293.545 216.74 293.166 216.276 292.698 216.276Z" fill="url(#paint8_linear_502_280)"/>
<path d="M311.897 216.275H297.702C297.234 216.275 296.855 216.74 296.855 217.313V231.127C296.855 231.7 297.234 232.165 297.702 232.165H311.897C312.365 232.165 312.745 231.7 312.745 231.127V217.313C312.745 216.74 312.365 216.275 311.897 216.275Z" fill="url(#paint9_linear_502_280)"/>
<path d="M292.697 238.786H278.502C278.034 238.786 277.655 239.25 277.655 239.823V253.638C277.655 254.211 278.034 254.675 278.502 254.675H292.697C293.165 254.675 293.545 254.211 293.545 253.638V239.823C293.545 239.25 293.165 238.786 292.697 238.786Z" fill="url(#paint10_linear_502_280)"/>
<path d="M292.697 261.296H278.502C278.034 261.296 277.655 261.761 277.655 262.334V276.148C277.655 276.721 278.034 277.186 278.502 277.186H292.697C293.165 277.186 293.545 276.721 293.545 276.148V262.334C293.545 261.761 293.165 261.296 292.697 261.296Z" fill="url(#paint11_linear_502_280)"/>
<path d="M311.897 238.786H297.702C297.234 238.786 296.855 239.908 296.855 241.294V274.678C296.855 276.063 297.234 277.186 297.702 277.186H311.897C312.365 277.186 312.745 276.063 312.745 274.678V241.294C312.745 239.908 312.365 238.786 311.897 238.786Z" fill="url(#paint12_linear_502_280)"/>
<path fill-rule="evenodd" clip-rule="evenodd" d="M312.608 176.704C312.608 176.192 312.507 175.684 312.311 175.21C312.115 174.737 311.827 174.306 311.465 173.944C311.102 173.581 310.672 173.294 310.198 173.097C309.724 172.901 309.217 172.8 308.704 172.8H243.296C242.783 172.8 242.276 172.901 241.802 173.097C241.328 173.294 240.898 173.581 240.536 173.944C240.173 174.306 239.885 174.737 239.689 175.21C239.493 175.684 239.392 176.192 239.392 176.704V199.04C239.391 199.553 239.492 200.06 239.69 200.533C239.888 201.005 240.178 201.434 240.544 201.792C241.277 202.52 242.264 202.933 243.296 202.944H308.704C309.736 202.933 310.724 202.52 311.456 201.792C311.822 201.434 312.112 201.005 312.31 200.533C312.508 200.06 312.609 199.553 312.608 199.04V176.704Z" fill="url(#paint13_linear_502_280)"/>
<path fill-rule="evenodd" clip-rule="evenodd" d="M294.759 199.504H303.783C304.631 199.504 305.445 199.166 306.045 198.566C306.645 197.966 306.983 197.152 306.983 196.304C306.966 195.46 306.624 194.656 306.027 194.059C305.431 193.462 304.626 193.12 303.783 193.104H294.759C293.91 193.104 293.096 193.441 292.496 194.041C291.896 194.641 291.559 195.455 291.559 196.304C291.559 197.152 291.896 197.966 292.496 198.566C293.096 199.166 293.91 199.504 294.759 199.504Z" fill="url(#paint14_linear_502_280)"/>
<path d="M177 77.5C177 84.3235 174.977 90.9937 171.186 96.6672C167.395 102.341 162.007 106.763 155.703 109.374C149.399 111.985 142.462 112.668 135.769 111.337C129.077 110.006 122.93 106.72 118.105 101.895C113.28 97.0703 109.994 90.923 108.663 84.2306C107.332 77.5383 108.015 70.6015 110.626 64.2974C113.237 57.9934 117.659 52.6052 123.333 48.8143C129.006 45.0234 135.677 43 142.5 43L142.5 77.5H177Z" fill="#005FEA"/>
<mask id="path-32-inside-1_502_280" fill="white">
<path d="M153.5 28C158.293 28 163.04 28.9441 167.468 30.7784C171.896 32.6127 175.92 35.3013 179.309 38.6906C182.699 42.0799 185.387 46.1037 187.222 50.5321C189.056 54.9604 190 59.7068 190 64.5L153.5 64.5L153.5 28Z"/>
</mask>
<path d="M153.5 28C158.293 28 163.04 28.9441 167.468 30.7784C171.896 32.6127 175.92 35.3013 179.309 38.6906C182.699 42.0799 185.387 46.1037 187.222 50.5321C189.056 54.9604 190 59.7068 190 64.5L153.5 64.5L153.5 28Z" stroke="url(#paint15_linear_502_280)" stroke-width="16" mask="url(#path-32-inside-1_502_280)"/>
<defs>
<filter id="filter0_d_502_280" x="49" y="68" width="180" height="238" filterUnits="userSpaceOnUse" color-interpolation-filters="sRGB">
<feFlood flood-opacity="0" result="BackgroundImageFix"/>
<feColorMatrix in="SourceAlpha" type="matrix" values="0 0 0 0 0 0 0 0 0 0 0 0 0 0 0 0 0 0 127 0" result="hardAlpha"/>
<feMorphology radius="2" operator="dilate" in="SourceAlpha" result="effect1_dropShadow_502_280"/>
<feOffset dx="-3" dy="-1"/>
<feGaussianBlur stdDeviation="6"/>
<feComposite in2="hardAlpha" operator="out"/>
<feColorMatrix type="matrix" values="0 0 0 0 0.426667 0 0 0 0 0.333333 0 0 0 0 1 0 0 0 0.1 0"/>
<feBlend mode="normal" in2="BackgroundImageFix" result="effect1_dropShadow_502_280"/>
<feBlend mode="normal" in="SourceGraphic" in2="effect1_dropShadow_502_280" result="shape"/>
</filter>
<linearGradient id="paint0_linear_502_280" x1="3.57583e-06" y1="175.813" x2="347" y2="175.813" gradientUnits="userSpaceOnUse">
<stop stop-color="#EDEAFF"/>
<stop offset="0.0001" stop-color="#FBFBFF"/>
<stop offset="1" stop-color="#C1C4FF"/>
</linearGradient>
<linearGradient id="paint1_linear_502_280" x1="228" y1="224.853" x2="324" y2="224.853" gradientUnits="userSpaceOnUse">
<stop stop-color="#B4B7FF"/>
<stop offset="1" stop-color="#406AFF"/>
</linearGradient>
<linearGradient id="paint2_linear_502_280" x1="239.255" y1="224.327" x2="255.145" y2="224.327" gradientUnits="userSpaceOnUse">
<stop stop-color="#EDEAFF"/>
<stop offset="1" stop-color="#C1C4FF"/>
</linearGradient>
<linearGradient id="paint3_linear_502_280" x1="239.255" y1="246.837" x2="255.145" y2="246.837" gradientUnits="userSpaceOnUse">
<stop stop-color="#EDEAFF"/>
<stop offset="1" stop-color="#C1C4FF"/>
</linearGradient>
<linearGradient id="paint4_linear_502_280" x1="239.255" y1="269.347" x2="255.145" y2="269.347" gradientUnits="userSpaceOnUse">
<stop stop-color="#EDEAFF"/>
<stop offset="1" stop-color="#C1C4FF"/>
</linearGradient>
<linearGradient id="paint5_linear_502_280" x1="258.455" y1="224.326" x2="274.345" y2="224.326" gradientUnits="userSpaceOnUse">
<stop stop-color="#EDEAFF"/>
<stop offset="1" stop-color="#C1C4FF"/>
</linearGradient>
<linearGradient id="paint6_linear_502_280" x1="258.455" y1="246.836" x2="274.345" y2="246.836" gradientUnits="userSpaceOnUse">
<stop stop-color="#EDEAFF"/>
<stop offset="1" stop-color="#C1C4FF"/>
</linearGradient>
<linearGradient id="paint7_linear_502_280" x1="258.455" y1="269.347" x2="274.345" y2="269.347" gradientUnits="userSpaceOnUse">
<stop stop-color="#EDEAFF"/>
<stop offset="1" stop-color="#C1C4FF"/>
</linearGradient>
<linearGradient id="paint8_linear_502_280" x1="277.655" y1="224.327" x2="293.545" y2="224.327" gradientUnits="userSpaceOnUse">
<stop stop-color="#EDEAFF"/>
<stop offset="1" stop-color="#C1C4FF"/>
</linearGradient>
<linearGradient id="paint9_linear_502_280" x1="296.855" y1="224.326" x2="312.745" y2="224.326" gradientUnits="userSpaceOnUse">
<stop stop-color="#EDEAFF"/>
<stop offset="1" stop-color="#C1C4FF"/>
</linearGradient>
<linearGradient id="paint10_linear_502_280" x1="277.655" y1="246.836" x2="293.545" y2="246.836" gradientUnits="userSpaceOnUse">
<stop stop-color="#EDEAFF"/>
<stop offset="1" stop-color="#C1C4FF"/>
</linearGradient>
<linearGradient id="paint11_linear_502_280" x1="277.655" y1="269.347" x2="293.545" y2="269.347" gradientUnits="userSpaceOnUse">
<stop stop-color="#EDEAFF"/>
<stop offset="1" stop-color="#C1C4FF"/>
</linearGradient>
<linearGradient id="paint12_linear_502_280" x1="296.855" y1="258.242" x2="312.745" y2="258.242" gradientUnits="userSpaceOnUse">
<stop stop-color="#EDEAFF"/>
<stop offset="1" stop-color="#C1C4FF"/>
</linearGradient>
<linearGradient id="paint13_linear_502_280" x1="239.392" y1="188.073" x2="312.608" y2="188.073" gradientUnits="userSpaceOnUse">
<stop stop-color="#EDEAFF"/>
<stop offset="1" stop-color="#C1C4FF"/>
</linearGradient>
<linearGradient id="paint14_linear_502_280" x1="291.559" y1="196.346" x2="306.983" y2="196.346" gradientUnits="userSpaceOnUse">
<stop stop-color="#EDEAFF"/>
<stop offset="1" stop-color="#C1C4FF"/>
</linearGradient>
<linearGradient id="paint15_linear_502_280" x1="135.459" y1="28" x2="171.646" y2="94.9514" gradientUnits="userSpaceOnUse">
<stop stop-color="#C79BCE" stop-opacity="0.4"/>
<stop offset="1" stop-color="#2144FF" stop-opacity="0"/>
</linearGradient>
</defs>
</svg>
