<svg width="245" height="153" viewBox="0 0 245 153" fill="none" xmlns="http://www.w3.org/2000/svg">
<path fill-rule="evenodd" clip-rule="evenodd" d="M166.332 141.474C175.042 128.126 180.105 112.18 180.105 95.0526C180.105 48.0794 142.026 10 95.0526 10C48.0794 10 10 48.0794 10 95.0526C10 112.18 15.0628 128.126 23.7735 141.474H12.0868C4.38905 127.745 0 111.912 0 95.0526C0 42.5565 42.5565 0 95.0526 0C147.549 0 190.105 42.5565 190.105 95.0526C190.105 111.912 185.716 127.745 178.018 141.474H166.332Z" fill="url(#paint0_linear_502_270)"/>
<path fill-rule="evenodd" clip-rule="evenodd" d="M63.9083 136.679C61.401 136.679 58.9152 136.743 56.4335 136.668C45.6019 136.344 37.2677 127.34 37.8073 116.59C38.288 107.011 46.2553 99.0832 55.9088 98.6603C58.5646 98.544 61.2305 98.6428 63.6922 98.6428C64.5506 97.0783 65.1867 95.568 66.1264 94.2752C68.6458 90.8089 72.1935 89.1248 76.4554 89.1039C87.0376 89.0527 97.6205 89.0469 108.202 89.1035C113.943 89.1341 118.431 92.4233 120.428 97.8027C120.545 98.1201 120.929 98.5723 121.187 98.571C124.059 98.5564 126.959 98.6976 129.795 98.3459C135.84 97.5961 140.513 91.9698 140.476 85.8295C140.438 79.7338 135.75 74.1634 129.736 73.4824C126.797 73.15 123.789 73.4251 120.816 73.4251C120.096 74.7318 119.448 76.269 118.489 77.5834C115.989 81.011 112.469 82.6937 108.25 82.7168C97.632 82.7746 87.0135 82.7816 76.3959 82.7177C70.657 82.6834 66.1547 79.3584 64.219 73.9736C64.1359 73.7427 64.0408 73.5161 63.9575 73.3036C62.4344 73.0243 61.1727 73.299 59.9087 74.2955C56.5469 76.946 53.062 79.4431 49.4955 82.098C48.235 80.4351 46.9878 78.7898 45.6559 77.0325C47.2781 75.8202 48.8777 74.6243 50.6856 73.2727C46.2666 73.2727 42.1026 73.2727 37.8548 73.2727C37.8548 71.1233 37.8548 69.0668 37.8548 66.8799C42.028 66.8799 46.2215 66.8799 50.4149 66.8799C50.436 66.8095 50.4569 66.7392 50.4778 66.6687C48.9095 65.4909 47.3414 64.313 45.6635 63.0528C46.9326 61.3719 48.1751 59.7264 49.4687 58.0133C49.8591 58.2868 50.2016 58.5142 50.5313 58.7593C53.6287 61.0617 56.7235 63.3673 59.8203 65.6707C61.6135 67.0046 61.6143 67.0031 63.7363 66.8251C64.5555 65.333 65.1914 63.8218 66.1323 62.5291C68.6541 59.0645 72.2031 57.3848 76.465 57.3647C87.0472 57.3146 97.6298 57.3074 108.212 57.3654C113.954 57.3967 118.444 60.674 120.396 66.0855C120.612 66.684 120.877 66.8797 121.516 66.8863C124.389 66.9149 127.281 66.8158 130.13 67.1112C137.525 67.8781 144.175 73.649 146.14 80.7716C148.212 88.2841 145.586 96.1554 139.478 100.824C135.89 103.565 131.841 104.934 127.324 104.953C125.125 104.963 122.926 104.955 120.688 104.955C119.969 107.293 118.833 109.329 117.047 110.986C114.54 113.313 111.555 114.456 108.16 114.465C97.6138 114.495 87.0666 114.508 76.5198 114.464C70.7256 114.439 66.2415 111.183 64.2058 105.736C64.089 105.423 63.6935 104.99 63.429 104.991C60.557 105.002 57.6578 104.86 54.8196 105.202C48.821 105.923 44.186 111.468 44.1664 117.608C44.147 123.794 48.7884 129.374 54.8405 130.102C57.6783 130.444 60.5779 130.301 63.4499 130.31C63.7094 130.311 64.0982 129.862 64.2113 129.546C65.5228 125.887 67.9206 123.199 71.5768 121.833C73.169 121.238 74.9489 120.882 76.6474 120.868C87.0873 120.782 97.528 120.806 107.968 120.832C113.878 120.846 118.42 124.087 120.436 129.629C120.519 129.857 120.622 130.078 120.734 130.346C121.063 130.346 121.381 130.346 121.698 130.346C124.996 130.346 128.293 130.346 131.591 130.346C131.63 130.281 131.668 130.215 131.706 130.15C130.121 128.97 128.536 127.79 126.854 126.538C128.133 124.836 129.373 123.185 130.672 121.456C136.065 125.473 141.391 129.439 146.867 133.518C141.452 137.553 136.132 141.519 130.678 145.584C129.422 143.917 128.18 142.27 126.851 140.506C128.481 139.293 130.084 138.101 131.867 136.774C128.016 136.774 124.388 136.774 120.887 136.774C120.095 138.218 119.459 139.727 118.52 141.02C116.003 144.487 112.457 146.176 108.195 146.197C97.6124 146.25 87.0295 146.254 76.4475 146.199C70.7049 146.169 66.1724 142.862 64.2341 137.501C64.1401 137.241 64.0304 136.986 63.9083 136.679ZM92.2517 76.3899C97.5028 76.3899 102.754 76.4038 108.005 76.3846C111.003 76.3736 113.383 74.7612 114.28 72.2032C115.783 67.9158 112.777 63.7416 108.09 63.7063C102.165 63.6616 96.2401 63.6949 90.3149 63.6949C85.738 63.6949 81.161 63.6777 76.5843 63.7016C73.6463 63.7171 71.2778 65.3222 70.3755 67.831C68.8255 72.1403 71.8649 76.348 76.6052 76.3814C81.8204 76.4182 87.0361 76.3899 92.2517 76.3899ZM92.3101 95.4338C91.3521 95.4338 90.3942 95.4338 89.4362 95.4338C85.143 95.434 80.8498 95.4006 76.5571 95.4435C71.8681 95.4907 68.8608 99.6486 70.3605 103.937C71.2669 106.529 73.66 108.121 76.7388 108.125C85.1831 108.136 93.6271 108.13 102.071 108.129C104.129 108.129 106.187 108.16 108.245 108.118C111.094 108.061 113.422 106.415 114.287 103.916C115.774 99.6215 112.76 95.4799 108.063 95.4437C102.812 95.4031 97.561 95.4344 92.3101 95.4338ZM92.4081 139.868C92.7983 139.868 93.1885 139.868 93.5787 139.868C98.4041 139.868 103.229 139.898 108.054 139.859C112.787 139.82 115.823 135.594 114.262 131.292C113.343 128.758 110.954 127.182 107.934 127.177C100.377 127.164 92.8196 127.173 85.2626 127.173C82.3531 127.173 79.4437 127.15 76.5345 127.18C73.609 127.209 71.2496 128.831 70.3629 131.356C68.8576 135.643 71.8628 139.817 76.549 139.857C81.8348 139.902 87.1216 139.867 92.4081 139.868Z" fill="url(#paint1_linear_502_270)"/>
<rect x="168" y="32" width="77" height="77" rx="13" fill="#2781FF"/>
<rect width="44" height="4" rx="2" transform="matrix(1 0 0 -1 185 56)" fill="white"/>
<rect width="44" height="4" rx="2" transform="matrix(1 0 0 -1 185 73)" fill="white"/>
<rect width="44" height="4" rx="2" transform="matrix(1 0 0 -1 185 90)" fill="white"/>
<defs>
<linearGradient id="paint0_linear_502_270" x1="48.0695" y1="-1.9207e-06" x2="106.115" y2="144.309" gradientUnits="userSpaceOnUse">
<stop stop-color="#F8CAFF" stop-opacity="0.4"/>
<stop offset="1" stop-color="white" stop-opacity="0"/>
</linearGradient>
<linearGradient id="paint1_linear_502_270" x1="65.3652" y1="57.3245" x2="104.241" y2="145.567" gradientUnits="userSpaceOnUse">
<stop stop-color="#C6C5FF"/>
<stop offset="1" stop-color="#B1D5FF"/>
</linearGradient>
</defs>
</svg>
