<svg width="200" height="149" viewBox="0 0 200 149" fill="none" xmlns="http://www.w3.org/2000/svg">
<path fill-rule="evenodd" clip-rule="evenodd" d="M175.067 148.933C184.148 134.908 189.421 118.188 189.421 100.237C189.421 50.6912 149.256 10.5264 99.7106 10.5264C50.1648 10.5264 10 50.6912 10 100.237C10 118.188 15.2727 134.908 24.3539 148.933H12.6791C4.60412 134.532 0 117.922 0 100.237C0 45.1683 44.642 0.526367 99.7106 0.526367C154.779 0.526367 199.421 45.1683 199.421 100.237C199.421 117.922 194.817 134.532 186.742 148.933H175.067Z" fill="url(#paint0_linear_502_271)"/>
<rect x="27" y="37" width="95" height="111" rx="13" fill="#2781FF"/>
<rect width="46" height="4" rx="2" transform="matrix(1 0 0 -1 52 93)" fill="white"/>
<rect width="46" height="4" rx="2" transform="matrix(1 0 0 -1 52 111)" fill="white"/>
<rect width="46" height="4" rx="2" transform="matrix(1 0 0 -1 52 129)" fill="white"/>
<ellipse cx="140" cy="108.5" rx="29" ry="28.5" fill="url(#paint1_linear_502_271)"/>
<path d="M152.5 99.375L134.625 117.25L126.5 109.125" stroke="white" stroke-width="3" stroke-linecap="round" stroke-linejoin="round"/>
<defs>
<linearGradient id="paint0_linear_502_271" x1="50.4251" y1="0.526365" x2="111.315" y2="151.907" gradientUnits="userSpaceOnUse">
<stop stop-color="#F8CAFF" stop-opacity="0.4"/>
<stop offset="1" stop-color="white" stop-opacity="0"/>
</linearGradient>
<linearGradient id="paint1_linear_502_271" x1="134.5" y1="102.5" x2="153.103" y2="129.771" gradientUnits="userSpaceOnUse">
<stop stop-color="#F8CAFF" stop-opacity="0.7"/>
<stop offset="1" stop-color="white" stop-opacity="0.8"/>
</linearGradient>
</defs>
</svg>
