<svg width="200" height="149" viewBox="0 0 200 149" fill="none" xmlns="http://www.w3.org/2000/svg">
<path fill-rule="evenodd" clip-rule="evenodd" d="M175.067 148.406C184.148 134.382 189.421 117.662 189.421 99.7106C189.421 50.1648 149.256 10 99.7106 10C50.1648 10 10 50.1648 10 99.7106C10 117.662 15.2727 134.382 24.3539 148.406H12.6791C4.60412 134.005 0 117.396 0 99.7106C0 44.642 44.642 0 99.7106 0C154.779 0 199.421 44.642 199.421 99.7106C199.421 117.396 194.817 134.005 186.742 148.406H175.067Z" fill="url(#paint0_linear_502_273)"/>
<rect x="112" y="86" width="87" height="39" rx="7" fill="#D8D1FF"/>
<path d="M136.08 100.36C135.537 100.36 135.083 100.191 134.716 99.854C134.364 99.502 134.188 99.0693 134.188 98.556C134.188 98.0427 134.364 97.6173 134.716 97.28C135.083 96.928 135.537 96.752 136.08 96.752C136.623 96.752 137.07 96.928 137.422 97.28C137.789 97.6173 137.972 98.0427 137.972 98.556C137.972 99.0693 137.789 99.502 137.422 99.854C137.07 100.191 136.623 100.36 136.08 100.36ZM137.598 101.812V114H134.518V101.812H137.598ZM149.837 114L146.515 108.83L143.501 114H140.025L144.865 106.256L139.959 98.644H143.501L146.823 103.792L149.815 98.644H153.291L148.473 106.366L153.379 114H149.837ZM164.435 106.124C165.3 106.285 166.012 106.718 166.569 107.422C167.126 108.126 167.405 108.933 167.405 109.842C167.405 110.663 167.2 111.389 166.789 112.02C166.393 112.636 165.814 113.12 165.051 113.472C164.288 113.824 163.386 114 162.345 114H155.723V98.644H162.059C163.1 98.644 163.995 98.8127 164.743 99.15C165.506 99.4873 166.078 99.9567 166.459 100.558C166.855 101.159 167.053 101.841 167.053 102.604C167.053 103.499 166.811 104.247 166.327 104.848C165.858 105.449 165.227 105.875 164.435 106.124ZM158.803 104.98H161.619C162.352 104.98 162.917 104.819 163.313 104.496C163.709 104.159 163.907 103.682 163.907 103.066C163.907 102.45 163.709 101.973 163.313 101.636C162.917 101.299 162.352 101.13 161.619 101.13H158.803V104.98ZM161.905 111.492C162.653 111.492 163.232 111.316 163.643 110.964C164.068 110.612 164.281 110.113 164.281 109.468C164.281 108.808 164.061 108.295 163.621 107.928C163.181 107.547 162.587 107.356 161.839 107.356H158.803V111.492H161.905ZM177.78 114L174.392 108.016H172.94V114H169.86V98.644H175.624C176.812 98.644 177.824 98.8567 178.66 99.282C179.496 99.6927 180.119 100.257 180.53 100.976C180.955 101.68 181.168 102.472 181.168 103.352C181.168 104.364 180.874 105.281 180.288 106.102C179.701 106.909 178.828 107.466 177.67 107.774L181.344 114H177.78ZM172.94 105.706H175.514C176.35 105.706 176.973 105.508 177.384 105.112C177.794 104.701 178 104.137 178 103.418C178 102.714 177.794 102.171 177.384 101.79C176.973 101.394 176.35 101.196 175.514 101.196H172.94V105.706ZM187.034 111.558H192.094V114H183.954V98.644H187.034V111.558Z" fill="white"/>
<rect x="10" y="60" width="116" height="81" rx="13" fill="#2781FF"/>
<path d="M27.1289 125.143H24V76.4285H27.1289V125.143ZM30.2578 125.108H28.6685V76.4285H30.2578V125.108ZM34.9263 125.108H33.3867V76.4285H34.9263V125.108ZM42.7238 125.108H41.1842V76.4285H42.7238V125.108ZM50.5212 125.108H47.442V76.4285H50.5212V125.108ZM56.779 125.108H55.2394V76.4285H56.779V125.108ZM59.9079 125.108H58.3683V76.4285H59.9079V125.108ZM63.0368 125.108H61.4972V76.4285H63.0368V125.108ZM70.8343 125.108H67.7054V76.4285H70.8343V125.108ZM78.6317 125.108H75.5028V76.4285H78.6317V125.108ZM84.8895 125.108H81.7606V76.4285H84.8895V125.108ZM91.1473 125.108H88.0184V76.4285H91.1473V125.108ZM95.8158 125.108H92.6869V76.4285H95.8158V125.108ZM105.203 125.108H100.534V76.4285H105.203V125.108ZM108.331 125.108H106.742V76.4285H108.331V125.108ZM113 125.143H109.871V76.4285H113V125.143Z" fill="white"/>
<defs>
<linearGradient id="paint0_linear_502_273" x1="50.4251" y1="-2.01482e-06" x2="111.315" y2="151.381" gradientUnits="userSpaceOnUse">
<stop stop-color="#F8CAFF" stop-opacity="0.4"/>
<stop offset="1" stop-color="white" stop-opacity="0"/>
</linearGradient>
</defs>
</svg>
