<svg width="263" height="168" viewBox="0 0 263 168" fill="none" xmlns="http://www.w3.org/2000/svg">
<path fill-rule="evenodd" clip-rule="evenodd" d="M201.648 168C210.358 154.652 215.421 138.707 215.421 121.579C215.421 74.6057 177.342 36.5264 130.369 36.5264C83.3953 36.5264 45.3159 74.6057 45.3159 121.579C45.3159 138.707 50.3787 154.652 59.0894 168H47.4027C39.705 154.272 35.3159 138.438 35.3159 121.579C35.3159 69.0829 77.8724 26.5264 130.369 26.5264C182.865 26.5264 225.421 69.0829 225.421 121.579C225.421 138.438 221.032 154.272 213.334 168H201.648Z" fill="url(#paint0_linear_502_269)"/>
<rect y="81" width="191" height="86" rx="13" fill="#EFEFFF"/>
<rect width="44" height="4" rx="2" transform="matrix(1 0 0 -1 26 107)" fill="white"/>
<rect width="86" height="4" rx="2" transform="matrix(1 0 0 -1 26 126)" fill="white"/>
<rect width="94" height="5" rx="2" transform="matrix(1 0 0 -1 26 145)" fill="white"/>
<path d="M151.69 150.044L169.163 132.502H234.968C248.362 132.502 259.22 121.602 259.22 108.155V102.871C259.22 89.4248 248.362 78.5244 234.968 78.5244H175.943C162.549 78.5244 151.692 89.4248 151.692 102.871V150.044H151.69Z" fill="#E7D7FF"/>
<path d="M230.323 110.911C233.664 110.911 236.371 108.192 236.371 104.839C236.371 101.485 233.664 98.7666 230.323 98.7666C226.983 98.7666 224.275 101.485 224.275 104.839C224.275 108.192 226.983 110.911 230.323 110.911Z" fill="white"/>
<path d="M208.145 110.913C211.486 110.913 214.195 108.193 214.195 104.839C214.195 101.484 211.486 98.7646 208.145 98.7646C204.804 98.7646 202.095 101.484 202.095 104.839C202.095 108.193 204.804 110.913 208.145 110.913Z" fill="white"/>
<path d="M185.966 110.91C189.307 110.91 192.015 108.191 192.015 104.838C192.015 101.484 189.307 98.7656 185.966 98.7656C182.626 98.7656 179.918 101.484 179.918 104.838C179.918 108.191 182.626 110.91 185.966 110.91Z" fill="white"/>
<path d="M137.227 75.1219L119.754 57.5779H53.9488C40.5551 57.5779 29.6975 46.6775 29.6975 33.2309V27.9488C29.6975 14.5003 40.5551 3.60181 53.9488 3.60181H112.976C126.37 3.60181 137.227 14.5022 137.227 27.9488V75.1219Z" fill="#2781FF"/>
<path d="M58.5955 35.987C61.9358 35.987 64.6437 33.2684 64.6437 29.9149C64.6437 26.5614 61.9358 23.8429 58.5955 23.8429C55.2552 23.8429 52.5474 26.5614 52.5474 29.9149C52.5474 33.2684 55.2552 35.987 58.5955 35.987Z" fill="white"/>
<path d="M80.7742 35.9898C84.1155 35.9898 86.8242 33.2704 86.8242 29.9158C86.8242 26.5613 84.1155 23.8419 80.7742 23.8419C77.4328 23.8419 74.7241 26.5613 74.7241 29.9158C74.7241 33.2704 77.4328 35.9898 80.7742 35.9898Z" fill="white"/>
<path d="M102.952 35.9878C106.293 35.9878 109.001 33.2693 109.001 29.9158C109.001 26.5623 106.293 23.8438 102.952 23.8438C99.6121 23.8438 96.9043 26.5623 96.9043 29.9158C96.9043 33.2693 99.6121 35.9878 102.952 35.9878Z" fill="white"/>
<defs>
<linearGradient id="paint0_linear_502_269" x1="83.3854" y1="26.5264" x2="141.431" y2="170.836" gradientUnits="userSpaceOnUse">
<stop stop-color="#F8CAFF" stop-opacity="0.4"/>
<stop offset="1" stop-color="white" stop-opacity="0"/>
</linearGradient>
</defs>
</svg>
