<svg width="388" height="340" viewBox="0 0 388 340" fill="none" xmlns="http://www.w3.org/2000/svg">
<rect x="306.455" y="90" width="74.0201" height="245.716" rx="37.01" transform="rotate(30.7017 306.455 90)" fill="url(#paint0_linear_502_278)"/>
<rect x="159.51" width="70.548" height="210.57" rx="35.274" transform="rotate(30.7017 159.51 0)" fill="url(#paint1_linear_502_278)"/>
<rect x="101.75" y="60" width="39.4463" height="195.372" rx="19.7232" transform="rotate(30.7017 101.75 60)" fill="url(#paint2_linear_502_278)"/>
<g filter="url(#filter0_d_502_278)">
<rect x="136" y="83" width="152" height="210" rx="13" fill="white"/>
</g>
<rect x="153" y="124" width="67" height="7" rx="3.5" fill="#EDECF3"/>
<rect x="153" y="148" width="51.3063" height="6" rx="3" fill="#EDECF3"/>
<rect x="153" y="218" width="51.3063" height="7" rx="3.5" fill="#EDECF3"/>
<rect x="153" y="171" width="41.6486" height="7" rx="3.5" fill="#EDECF3"/>
<rect x="153" y="242" width="41.6486" height="6" rx="3" fill="#EDECF3"/>
<rect x="153" y="195" width="54.9279" height="6" rx="3" fill="#EDECF3"/>
<rect x="153" y="265" width="54.9279" height="7" rx="3.5" fill="#EDECF3"/>
<rect x="239" y="124" width="31" height="7" rx="3.5" fill="#CDC9FF"/>
<rect x="239" y="148" width="23.7387" height="6" rx="3" fill="#CDC9FF"/>
<rect x="239" y="218" width="23.7387" height="7" rx="3.5" fill="#CDC9FF"/>
<rect x="239" y="171" width="19.2703" height="7" rx="3.5" fill="#CDC9FF"/>
<rect x="239" y="242" width="19.2703" height="6" rx="3" fill="#CDC9FF"/>
<rect x="239" y="195" width="25.4144" height="6" rx="3" fill="#CDC9FF"/>
<rect x="239" y="265" width="25.4144" height="7" rx="3.5" fill="#CDC9FF"/>
<g filter="url(#filter1_d_502_278)">
<rect x="17" y="215" width="170" height="35" rx="13" fill="white"/>
</g>
<g filter="url(#filter2_d_502_278)">
<rect x="264" y="154" width="113" height="35" rx="13" fill="white"/>
</g>
<path d="M39.36 226.53L35.82 233.355V237H33.72V233.355L30.165 226.53H32.535L34.785 231.315L37.02 226.53H39.36ZM48.2961 232.665C48.2961 232.965 48.2761 233.235 48.2361 233.475H42.1611C42.2111 234.075 42.4211 234.545 42.7911 234.885C43.1611 235.225 43.6161 235.395 44.1561 235.395C44.9361 235.395 45.4911 235.06 45.8211 234.39H48.0861C47.8461 235.19 47.3861 235.85 46.7061 236.37C46.0261 236.88 45.1911 237.135 44.2011 237.135C43.4011 237.135 42.6811 236.96 42.0411 236.61C41.4111 236.25 40.9161 235.745 40.5561 235.095C40.2061 234.445 40.0311 233.695 40.0311 232.845C40.0311 231.985 40.2061 231.23 40.5561 230.58C40.9061 229.93 41.3961 229.43 42.0261 229.08C42.6561 228.73 43.3811 228.555 44.2011 228.555C44.9911 228.555 45.6961 228.725 46.3161 229.065C46.9461 229.405 47.4311 229.89 47.7711 230.52C48.1211 231.14 48.2961 231.855 48.2961 232.665ZM46.1211 232.065C46.1111 231.525 45.9161 231.095 45.5361 230.775C45.1561 230.445 44.6911 230.28 44.1411 230.28C43.6211 230.28 43.1811 230.44 42.8211 230.76C42.4711 231.07 42.2561 231.505 42.1761 232.065H46.1211ZM49.2889 232.815C49.2889 231.975 49.4539 231.23 49.7839 230.58C50.1239 229.93 50.5789 229.43 51.1489 229.08C51.7289 228.73 52.3739 228.555 53.0839 228.555C53.7039 228.555 54.2439 228.68 54.7039 228.93C55.1739 229.18 55.5489 229.495 55.8289 229.875V228.69H57.9439V237H55.8289V235.785C55.5589 236.175 55.1839 236.5 54.7039 236.76C54.2339 237.01 53.6889 237.135 53.0689 237.135C52.3689 237.135 51.7289 236.955 51.1489 236.595C50.5789 236.235 50.1239 235.73 49.7839 235.08C49.4539 234.42 49.2889 233.665 49.2889 232.815ZM55.8289 232.845C55.8289 232.335 55.7289 231.9 55.5289 231.54C55.3289 231.17 55.0589 230.89 54.7189 230.7C54.3789 230.5 54.0139 230.4 53.6239 230.4C53.2339 230.4 52.8739 230.495 52.5439 230.685C52.2139 230.875 51.9439 231.155 51.7339 231.525C51.5339 231.885 51.4339 232.315 51.4339 232.815C51.4339 233.315 51.5339 233.755 51.7339 234.135C51.9439 234.505 52.2139 234.79 52.5439 234.99C52.8839 235.19 53.2439 235.29 53.6239 235.29C54.0139 235.29 54.3789 235.195 54.7189 235.005C55.0589 234.805 55.3289 234.525 55.5289 234.165C55.7289 233.795 55.8289 233.355 55.8289 232.845ZM62.095 229.98C62.365 229.54 62.715 229.195 63.145 228.945C63.585 228.695 64.085 228.57 64.645 228.57V230.775H64.09C63.43 230.775 62.93 230.93 62.59 231.24C62.26 231.55 62.095 232.09 62.095 232.86V237H59.995V228.69H62.095V229.98ZM77.3586 232.665C77.3586 232.965 77.3386 233.235 77.2986 233.475H71.2236C71.2736 234.075 71.4836 234.545 71.8536 234.885C72.2236 235.225 72.6786 235.395 73.2186 235.395C73.9986 235.395 74.5536 235.06 74.8836 234.39H77.1486C76.9086 235.19 76.4486 235.85 75.7686 236.37C75.0886 236.88 74.2536 237.135 73.2636 237.135C72.4636 237.135 71.7436 236.96 71.1036 236.61C70.4736 236.25 69.9786 235.745 69.6186 235.095C69.2686 234.445 69.0936 233.695 69.0936 232.845C69.0936 231.985 69.2686 231.23 69.6186 230.58C69.9686 229.93 70.4586 229.43 71.0886 229.08C71.7186 228.73 72.4436 228.555 73.2636 228.555C74.0536 228.555 74.7586 228.725 75.3786 229.065C76.0086 229.405 76.4936 229.89 76.8336 230.52C77.1836 231.14 77.3586 231.855 77.3586 232.665ZM75.1836 232.065C75.1736 231.525 74.9786 231.095 74.5986 230.775C74.2186 230.445 73.7536 230.28 73.2036 230.28C72.6836 230.28 72.2436 230.44 71.8836 230.76C71.5336 231.07 71.3186 231.505 71.2386 232.065H75.1836ZM83.4964 228.57C84.4864 228.57 85.2864 228.885 85.8964 229.515C86.5064 230.135 86.8114 231.005 86.8114 232.125V237H84.7114V232.41C84.7114 231.75 84.5464 231.245 84.2164 230.895C83.8864 230.535 83.4364 230.355 82.8664 230.355C82.2864 230.355 81.8264 230.535 81.4864 230.895C81.1564 231.245 80.9914 231.75 80.9914 232.41V237H78.8914V228.69H80.9914V229.725C81.2714 229.365 81.6264 229.085 82.0564 228.885C82.4964 228.675 82.9764 228.57 83.4964 228.57ZM88.2684 232.815C88.2684 231.975 88.4334 231.23 88.7634 230.58C89.1034 229.93 89.5634 229.43 90.1434 229.08C90.7234 228.73 91.3684 228.555 92.0784 228.555C92.6184 228.555 93.1334 228.675 93.6234 228.915C94.1134 229.145 94.5034 229.455 94.7934 229.845V225.9H96.9234V237H94.7934V235.77C94.5334 236.18 94.1684 236.51 93.6984 236.76C93.2284 237.01 92.6834 237.135 92.0634 237.135C91.3634 237.135 90.7234 236.955 90.1434 236.595C89.5634 236.235 89.1034 235.73 88.7634 235.08C88.4334 234.42 88.2684 233.665 88.2684 232.815ZM94.8084 232.845C94.8084 232.335 94.7084 231.9 94.5084 231.54C94.3084 231.17 94.0384 230.89 93.6984 230.7C93.3584 230.5 92.9934 230.4 92.6034 230.4C92.2134 230.4 91.8534 230.495 91.5234 230.685C91.1934 230.875 90.9234 231.155 90.7134 231.525C90.5134 231.885 90.4134 232.315 90.4134 232.815C90.4134 233.315 90.5134 233.755 90.7134 234.135C90.9234 234.505 91.1934 234.79 91.5234 234.99C91.8634 235.19 92.2234 235.29 92.6034 235.29C92.9934 235.29 93.3584 235.195 93.6984 235.005C94.0384 234.805 94.3084 234.525 94.5084 234.165C94.7084 233.795 94.8084 233.355 94.8084 232.845ZM102.009 232.815C102.009 231.975 102.174 231.23 102.504 230.58C102.844 229.93 103.299 229.43 103.869 229.08C104.449 228.73 105.094 228.555 105.804 228.555C106.424 228.555 106.964 228.68 107.424 228.93C107.894 229.18 108.269 229.495 108.549 229.875V228.69H110.664V237H108.549V235.785C108.279 236.175 107.904 236.5 107.424 236.76C106.954 237.01 106.409 237.135 105.789 237.135C105.089 237.135 104.449 236.955 103.869 236.595C103.299 236.235 102.844 235.73 102.504 235.08C102.174 234.42 102.009 233.665 102.009 232.815ZM108.549 232.845C108.549 232.335 108.449 231.9 108.249 231.54C108.049 231.17 107.779 230.89 107.439 230.7C107.099 230.5 106.734 230.4 106.344 230.4C105.954 230.4 105.594 230.495 105.264 230.685C104.934 230.875 104.664 231.155 104.454 231.525C104.254 231.885 104.154 232.315 104.154 232.815C104.154 233.315 104.254 233.755 104.454 234.135C104.664 234.505 104.934 234.79 105.264 234.99C105.604 235.19 105.964 235.29 106.344 235.29C106.734 235.29 107.099 235.195 107.439 235.005C107.779 234.805 108.049 234.525 108.249 234.165C108.449 233.795 108.549 233.355 108.549 232.845ZM112.175 232.845C112.175 231.985 112.35 231.235 112.7 230.595C113.05 229.945 113.535 229.445 114.155 229.095C114.775 228.735 115.485 228.555 116.285 228.555C117.315 228.555 118.165 228.815 118.835 229.335C119.515 229.845 119.97 230.565 120.2 231.495H117.935C117.815 231.135 117.61 230.855 117.32 230.655C117.04 230.445 116.69 230.34 116.27 230.34C115.67 230.34 115.195 230.56 114.845 231C114.495 231.43 114.32 232.045 114.32 232.845C114.32 233.635 114.495 234.25 114.845 234.69C115.195 235.12 115.67 235.335 116.27 235.335C117.12 235.335 117.675 234.955 117.935 234.195H120.2C119.97 235.095 119.515 235.81 118.835 236.34C118.155 236.87 117.305 237.135 116.285 237.135C115.485 237.135 114.775 236.96 114.155 236.61C113.535 236.25 113.05 235.75 112.7 235.11C112.35 234.46 112.175 233.705 112.175 232.845ZM121.198 232.845C121.198 231.985 121.373 231.235 121.723 230.595C122.073 229.945 122.558 229.445 123.178 229.095C123.798 228.735 124.508 228.555 125.308 228.555C126.338 228.555 127.188 228.815 127.858 229.335C128.538 229.845 128.993 230.565 129.223 231.495H126.958C126.838 231.135 126.633 230.855 126.343 230.655C126.063 230.445 125.713 230.34 125.293 230.34C124.693 230.34 124.218 230.56 123.868 231C123.518 231.43 123.343 232.045 123.343 232.845C123.343 233.635 123.518 234.25 123.868 234.69C124.218 235.12 124.693 235.335 125.293 235.335C126.143 235.335 126.698 234.955 126.958 234.195H129.223C128.993 235.095 128.538 235.81 127.858 236.34C127.178 236.87 126.328 237.135 125.308 237.135C124.508 237.135 123.798 236.96 123.178 236.61C122.558 236.25 122.073 235.75 121.723 235.11C121.373 234.46 121.198 233.705 121.198 232.845ZM134.452 237.135C133.652 237.135 132.932 236.96 132.292 236.61C131.652 236.25 131.147 235.745 130.777 235.095C130.417 234.445 130.237 233.695 130.237 232.845C130.237 231.995 130.422 231.245 130.792 230.595C131.172 229.945 131.687 229.445 132.337 229.095C132.987 228.735 133.712 228.555 134.512 228.555C135.312 228.555 136.037 228.735 136.687 229.095C137.337 229.445 137.847 229.945 138.217 230.595C138.597 231.245 138.787 231.995 138.787 232.845C138.787 233.695 138.592 234.445 138.202 235.095C137.822 235.745 137.302 236.25 136.642 236.61C135.992 236.96 135.262 237.135 134.452 237.135ZM134.452 235.305C134.832 235.305 135.187 235.215 135.517 235.035C135.857 234.845 136.127 234.565 136.327 234.195C136.527 233.825 136.627 233.375 136.627 232.845C136.627 232.055 136.417 231.45 135.997 231.03C135.587 230.6 135.082 230.385 134.482 230.385C133.882 230.385 133.377 230.6 132.967 231.03C132.567 231.45 132.367 232.055 132.367 232.845C132.367 233.635 132.562 234.245 132.952 234.675C133.352 235.095 133.852 235.305 134.452 235.305ZM148.172 228.69V237H146.057V235.95C145.787 236.31 145.432 236.595 144.992 236.805C144.562 237.005 144.092 237.105 143.582 237.105C142.932 237.105 142.357 236.97 141.857 236.7C141.357 236.42 140.962 236.015 140.672 235.485C140.392 234.945 140.252 234.305 140.252 233.565V228.69H142.352V233.265C142.352 233.925 142.517 234.435 142.847 234.795C143.177 235.145 143.627 235.32 144.197 235.32C144.777 235.32 145.232 235.145 145.562 234.795C145.892 234.435 146.057 233.925 146.057 233.265V228.69H148.172ZM154.849 228.57C155.839 228.57 156.639 228.885 157.249 229.515C157.859 230.135 158.164 231.005 158.164 232.125V237H156.064V232.41C156.064 231.75 155.899 231.245 155.569 230.895C155.239 230.535 154.789 230.355 154.219 230.355C153.639 230.355 153.179 230.535 152.839 230.895C152.509 231.245 152.344 231.75 152.344 232.41V237H150.244V228.69H152.344V229.725C152.624 229.365 152.979 229.085 153.409 228.885C153.849 228.675 154.329 228.57 154.849 228.57ZM162.606 230.415V234.435C162.606 234.715 162.671 234.92 162.801 235.05C162.941 235.17 163.171 235.23 163.491 235.23H164.466V237H163.146C161.376 237 160.491 236.14 160.491 234.42V230.415H159.501V228.69H160.491V226.635H162.606V228.69H164.466V230.415H162.606ZM169.156 237.135C168.476 237.135 167.866 237.015 167.326 236.775C166.786 236.525 166.356 236.19 166.036 235.77C165.726 235.35 165.556 234.885 165.526 234.375H167.641C167.681 234.695 167.836 234.96 168.106 235.17C168.386 235.38 168.731 235.485 169.141 235.485C169.541 235.485 169.851 235.405 170.071 235.245C170.301 235.085 170.416 234.88 170.416 234.63C170.416 234.36 170.276 234.16 169.996 234.03C169.726 233.89 169.291 233.74 168.691 233.58C168.071 233.43 167.561 233.275 167.161 233.115C166.771 232.955 166.431 232.71 166.141 232.38C165.861 232.05 165.721 231.605 165.721 231.045C165.721 230.585 165.851 230.165 166.111 229.785C166.381 229.405 166.761 229.105 167.251 228.885C167.751 228.665 168.336 228.555 169.006 228.555C169.996 228.555 170.786 228.805 171.376 229.305C171.966 229.795 172.291 230.46 172.351 231.3H170.341C170.311 230.97 170.171 230.71 169.921 230.52C169.681 230.32 169.356 230.22 168.946 230.22C168.566 230.22 168.271 230.29 168.061 230.43C167.861 230.57 167.761 230.765 167.761 231.015C167.761 231.295 167.901 231.51 168.181 231.66C168.461 231.8 168.896 231.945 169.486 232.095C170.086 232.245 170.581 232.4 170.971 232.56C171.361 232.72 171.696 232.97 171.976 233.31C172.266 233.64 172.416 234.08 172.426 234.63C172.426 235.11 172.291 235.54 172.021 235.92C171.761 236.3 171.381 236.6 170.881 236.82C170.391 237.03 169.816 237.135 169.156 237.135Z" fill="#5D6B8E"/>
<path d="M290.16 165.53V167.225H287.37V176H285.27V167.225H282.48V165.53H290.16ZM291.152 171.815C291.152 170.975 291.317 170.23 291.647 169.58C291.987 168.93 292.442 168.43 293.012 168.08C293.592 167.73 294.237 167.555 294.947 167.555C295.567 167.555 296.107 167.68 296.567 167.93C297.037 168.18 297.412 168.495 297.692 168.875V167.69H299.807V176H297.692V174.785C297.422 175.175 297.047 175.5 296.567 175.76C296.097 176.01 295.552 176.135 294.932 176.135C294.232 176.135 293.592 175.955 293.012 175.595C292.442 175.235 291.987 174.73 291.647 174.08C291.317 173.42 291.152 172.665 291.152 171.815ZM297.692 171.845C297.692 171.335 297.592 170.9 297.392 170.54C297.192 170.17 296.922 169.89 296.582 169.7C296.242 169.5 295.877 169.4 295.487 169.4C295.097 169.4 294.737 169.495 294.407 169.685C294.077 169.875 293.807 170.155 293.597 170.525C293.397 170.885 293.297 171.315 293.297 171.815C293.297 172.315 293.397 172.755 293.597 173.135C293.807 173.505 294.077 173.79 294.407 173.99C294.747 174.19 295.107 174.29 295.487 174.29C295.877 174.29 296.242 174.195 296.582 174.005C296.922 173.805 297.192 173.525 297.392 173.165C297.592 172.795 297.692 172.355 297.692 171.845ZM306.448 176L304.738 173.42L303.223 176H300.973L303.688 171.83L300.943 167.69H303.313L305.008 170.255L306.538 167.69H308.788L306.058 171.83L308.818 176H306.448ZM315.633 168.98C315.903 168.54 316.253 168.195 316.683 167.945C317.123 167.695 317.623 167.57 318.183 167.57V169.775H317.628C316.968 169.775 316.468 169.93 316.128 170.24C315.798 170.55 315.633 171.09 315.633 171.86V176H313.533V167.69H315.633V168.98ZM327.323 171.665C327.323 171.965 327.303 172.235 327.263 172.475H321.188C321.238 173.075 321.448 173.545 321.818 173.885C322.188 174.225 322.643 174.395 323.183 174.395C323.963 174.395 324.518 174.06 324.848 173.39H327.113C326.873 174.19 326.413 174.85 325.733 175.37C325.053 175.88 324.218 176.135 323.228 176.135C322.428 176.135 321.708 175.96 321.068 175.61C320.438 175.25 319.943 174.745 319.583 174.095C319.233 173.445 319.057 172.695 319.057 171.845C319.057 170.985 319.233 170.23 319.583 169.58C319.933 168.93 320.423 168.43 321.053 168.08C321.683 167.73 322.408 167.555 323.228 167.555C324.018 167.555 324.723 167.725 325.343 168.065C325.973 168.405 326.458 168.89 326.798 169.52C327.148 170.14 327.323 170.855 327.323 171.665ZM325.148 171.065C325.138 170.525 324.943 170.095 324.563 169.775C324.183 169.445 323.718 169.28 323.168 169.28C322.648 169.28 322.208 169.44 321.848 169.76C321.498 170.07 321.283 170.505 321.203 171.065H325.148ZM331.3 169.415V173.435C331.3 173.715 331.365 173.92 331.495 174.05C331.635 174.17 331.865 174.23 332.185 174.23H333.16V176H331.84C330.07 176 329.185 175.14 329.185 173.42V169.415H328.195V167.69H329.185V165.635H331.3V167.69H333.16V169.415H331.3ZM342.516 167.69V176H340.401V174.95C340.131 175.31 339.776 175.595 339.336 175.805C338.906 176.005 338.436 176.105 337.926 176.105C337.276 176.105 336.701 175.97 336.201 175.7C335.701 175.42 335.306 175.015 335.016 174.485C334.736 173.945 334.596 173.305 334.596 172.565V167.69H336.696V172.265C336.696 172.925 336.861 173.435 337.191 173.795C337.521 174.145 337.971 174.32 338.541 174.32C339.121 174.32 339.576 174.145 339.906 173.795C340.236 173.435 340.401 172.925 340.401 172.265V167.69H342.516ZM346.688 168.98C346.958 168.54 347.308 168.195 347.738 167.945C348.178 167.695 348.678 167.57 349.238 167.57V169.775H348.683C348.023 169.775 347.523 169.93 347.183 170.24C346.853 170.55 346.688 171.09 346.688 171.86V176H344.588V167.69H346.688V168.98ZM355.257 167.57C356.247 167.57 357.047 167.885 357.657 168.515C358.267 169.135 358.572 170.005 358.572 171.125V176H356.472V171.41C356.472 170.75 356.307 170.245 355.977 169.895C355.647 169.535 355.197 169.355 354.627 169.355C354.047 169.355 353.587 169.535 353.247 169.895C352.917 170.245 352.752 170.75 352.752 171.41V176H350.652V167.69H352.752V168.725C353.032 168.365 353.387 168.085 353.817 167.885C354.257 167.675 354.737 167.57 355.257 167.57Z" fill="#5D6B8E"/>
<defs>
<filter id="filter0_d_502_278" x="119" y="68" width="180" height="238" filterUnits="userSpaceOnUse" color-interpolation-filters="sRGB">
<feFlood flood-opacity="0" result="BackgroundImageFix"/>
<feColorMatrix in="SourceAlpha" type="matrix" values="0 0 0 0 0 0 0 0 0 0 0 0 0 0 0 0 0 0 127 0" result="hardAlpha"/>
<feMorphology radius="2" operator="dilate" in="SourceAlpha" result="effect1_dropShadow_502_278"/>
<feOffset dx="-3" dy="-1"/>
<feGaussianBlur stdDeviation="6"/>
<feComposite in2="hardAlpha" operator="out"/>
<feColorMatrix type="matrix" values="0 0 0 0 0.426667 0 0 0 0 0.333333 0 0 0 0 1 0 0 0 0.1 0"/>
<feBlend mode="normal" in2="BackgroundImageFix" result="effect1_dropShadow_502_278"/>
<feBlend mode="normal" in="SourceGraphic" in2="effect1_dropShadow_502_278" result="shape"/>
</filter>
<filter id="filter1_d_502_278" x="0" y="200" width="198" height="63" filterUnits="userSpaceOnUse" color-interpolation-filters="sRGB">
<feFlood flood-opacity="0" result="BackgroundImageFix"/>
<feColorMatrix in="SourceAlpha" type="matrix" values="0 0 0 0 0 0 0 0 0 0 0 0 0 0 0 0 0 0 127 0" result="hardAlpha"/>
<feMorphology radius="2" operator="dilate" in="SourceAlpha" result="effect1_dropShadow_502_278"/>
<feOffset dx="-3" dy="-1"/>
<feGaussianBlur stdDeviation="6"/>
<feComposite in2="hardAlpha" operator="out"/>
<feColorMatrix type="matrix" values="0 0 0 0 0.426667 0 0 0 0 0.333333 0 0 0 0 1 0 0 0 0.1 0"/>
<feBlend mode="normal" in2="BackgroundImageFix" result="effect1_dropShadow_502_278"/>
<feBlend mode="normal" in="SourceGraphic" in2="effect1_dropShadow_502_278" result="shape"/>
</filter>
<filter id="filter2_d_502_278" x="247" y="139" width="141" height="63" filterUnits="userSpaceOnUse" color-interpolation-filters="sRGB">
<feFlood flood-opacity="0" result="BackgroundImageFix"/>
<feColorMatrix in="SourceAlpha" type="matrix" values="0 0 0 0 0 0 0 0 0 0 0 0 0 0 0 0 0 0 127 0" result="hardAlpha"/>
<feMorphology radius="2" operator="dilate" in="SourceAlpha" result="effect1_dropShadow_502_278"/>
<feOffset dx="-3" dy="-1"/>
<feGaussianBlur stdDeviation="6"/>
<feComposite in2="hardAlpha" operator="out"/>
<feColorMatrix type="matrix" values="0 0 0 0 0.426667 0 0 0 0 0.333333 0 0 0 0 1 0 0 0 0.1 0"/>
<feBlend mode="normal" in2="BackgroundImageFix" result="effect1_dropShadow_502_278"/>
<feBlend mode="normal" in="SourceGraphic" in2="effect1_dropShadow_502_278" result="shape"/>
</filter>
<linearGradient id="paint0_linear_502_278" x1="343.465" y1="90" x2="343.465" y2="335.716" gradientUnits="userSpaceOnUse">
<stop stop-color="#F8CFFF" stop-opacity="0.4"/>
<stop offset="1" stop-color="#C4C4C4" stop-opacity="0"/>
</linearGradient>
<linearGradient id="paint1_linear_502_278" x1="194.784" y1="0" x2="194.784" y2="210.57" gradientUnits="userSpaceOnUse">
<stop stop-color="#ADB5FF" stop-opacity="0.4"/>
<stop offset="1" stop-color="#C4C4C4" stop-opacity="0"/>
</linearGradient>
<linearGradient id="paint2_linear_502_278" x1="121.474" y1="60" x2="121.474" y2="255.372" gradientUnits="userSpaceOnUse">
<stop stop-color="#F8CFFF" stop-opacity="0.4"/>
<stop offset="1" stop-color="#C4C4C4" stop-opacity="0"/>
</linearGradient>
</defs>
</svg>
